<svg width="95" height="16" viewBox="0 0 95 16" fill="none" xmlns="http://www.w3.org/2000/svg">
<path d="M0.98 15C0.833333 15 0.713333 14.9533 0.62 14.86C0.526667 14.7667 0.48 14.6467 0.48 14.5V1.5C0.48 1.35333 0.526667 1.23333 0.62 1.14C0.713333 1.04667 0.833333 0.999999 0.98 0.999999H3.2C3.34667 0.999999 3.46667 1.04667 3.56 1.14C3.65333 1.23333 3.7 1.35333 3.7 1.5V12.32H9.9C10.0467 12.32 10.1667 12.3667 10.26 12.46C10.3533 12.5533 10.4 12.6733 10.4 12.82V14.5C10.4 14.6467 10.3533 14.7667 10.26 14.86C10.1667 14.9533 10.0467 15 9.9 15H0.98ZM17.6844 15.2C16.511 15.2 15.4844 15.0067 14.6044 14.62C13.7244 14.22 13.0444 13.6133 12.5644 12.8C12.0844 11.9733 11.8444 10.9267 11.8444 9.66V1.5C11.8444 1.35333 11.891 1.23333 11.9844 1.14C12.0777 1.04667 12.1977 0.999999 12.3444 0.999999H14.5244C14.671 0.999999 14.791 1.04667 14.8844 1.14C14.9777 1.23333 15.0244 1.35333 15.0244 1.5V9.64C15.0244 10.6267 15.2577 11.36 15.7244 11.84C16.191 12.32 16.8444 12.56 17.6844 12.56C18.511 12.56 19.1577 12.32 19.6244 11.84C20.091 11.36 20.3244 10.6267 20.3244 9.64V1.5C20.3244 1.35333 20.371 1.23333 20.4644 1.14C20.571 1.04667 20.691 0.999999 20.8244 0.999999H23.0244C23.1577 0.999999 23.271 1.04667 23.3644 1.14C23.4577 1.23333 23.5044 1.35333 23.5044 1.5V9.66C23.5044 10.9267 23.2644 11.9733 22.7844 12.8C22.3044 13.6133 21.631 14.22 20.7644 14.62C19.8977 15.0067 18.871 15.2 17.6844 15.2ZM31.8994 15.2C30.646 15.2 29.5794 14.9933 28.6994 14.58C27.8327 14.1533 27.1594 13.54 26.6794 12.74C26.1994 11.9267 25.9327 10.94 25.8794 9.78C25.866 9.23333 25.8594 8.64667 25.8594 8.02C25.8594 7.39333 25.866 6.79333 25.8794 6.22C25.9327 5.07333 26.1994 4.1 26.6794 3.3C27.1727 2.48667 27.8594 1.86667 28.7394 1.44C29.6194 1.01333 30.6727 0.799999 31.8994 0.799999C32.7927 0.799999 33.606 0.913333 34.3394 1.14C35.0727 1.36667 35.706 1.69333 36.2394 2.12C36.7727 2.54667 37.186 3.04667 37.4794 3.62C37.7727 4.19333 37.9327 4.83333 37.9594 5.54C37.9594 5.66 37.9127 5.76 37.8194 5.84C37.7394 5.92 37.6394 5.96 37.5194 5.96H35.2394C35.0794 5.96 34.9527 5.92 34.8594 5.84C34.766 5.76 34.6927 5.62667 34.6394 5.44C34.4394 4.65333 34.106 4.11333 33.6394 3.82C33.1727 3.52667 32.5927 3.38 31.8994 3.38C31.0727 3.38 30.4194 3.60667 29.9394 4.06C29.4594 4.51333 29.1994 5.26667 29.1594 6.32C29.1194 7.41333 29.1194 8.53333 29.1594 9.68C29.1994 10.7333 29.4594 11.4867 29.9394 11.94C30.4194 12.3933 31.0727 12.62 31.8994 12.62C32.5927 12.62 33.1727 12.4733 33.6394 12.18C34.1194 11.8733 34.4527 11.3333 34.6394 10.56C34.6927 10.36 34.766 10.2267 34.8594 10.16C34.9527 10.08 35.0794 10.04 35.2394 10.04H37.5194C37.6394 10.04 37.7394 10.08 37.8194 10.16C37.9127 10.24 37.9594 10.34 37.9594 10.46C37.9327 11.1667 37.7727 11.8067 37.4794 12.38C37.186 12.9533 36.7727 13.4533 36.2394 13.88C35.706 14.3067 35.0727 14.6333 34.3394 14.86C33.606 15.0867 32.7927 15.2 31.8994 15.2ZM40.7066 15C40.5599 15 40.4399 14.9533 40.3466 14.86C40.2532 14.7667 40.2066 14.6467 40.2066 14.5V1.5C40.2066 1.35333 40.2532 1.23333 40.3466 1.14C40.4399 1.04667 40.5599 0.999999 40.7066 0.999999H42.8266C42.9732 0.999999 43.0932 1.04667 43.1866 1.14C43.2799 1.23333 43.3266 1.35333 43.3266 1.5V6.06L47.4466 1.38C47.4999 1.3 47.5866 1.22 47.7066 1.14C47.8399 1.04667 48.0132 0.999999 48.2266 0.999999H50.6466C50.7666 0.999999 50.8666 1.04667 50.9466 1.14C51.0266 1.22 51.0666 1.31333 51.0666 1.42C51.0666 1.51333 51.0399 1.59333 50.9866 1.66L45.8466 7.7L51.3666 14.34C51.4199 14.3933 51.4466 14.4733 51.4466 14.58C51.4466 14.6867 51.4066 14.7867 51.3266 14.88C51.2466 14.96 51.1466 15 51.0266 15H48.5266C48.2866 15 48.1066 14.9467 47.9866 14.84C47.8666 14.7333 47.7866 14.66 47.7466 14.62L43.3266 9.5V14.5C43.3266 14.6467 43.2799 14.7667 43.1866 14.86C43.0932 14.9533 42.9732 15 42.8266 15H40.7066ZM53.6558 15C53.5224 15 53.4024 14.9533 53.2958 14.86C53.2024 14.7667 53.1558 14.6467 53.1558 14.5V1.5C53.1558 1.35333 53.2024 1.23333 53.2958 1.14C53.4024 1.04667 53.5224 0.999999 53.6558 0.999999H55.5158C55.7158 0.999999 55.8624 1.05333 55.9558 1.16C56.0624 1.26667 56.1358 1.34667 56.1758 1.4L59.8558 8.18L63.5758 1.4C63.6024 1.34667 63.6624 1.26667 63.7558 1.16C63.8624 1.05333 64.0158 0.999999 64.2158 0.999999H66.0758C66.2224 0.999999 66.3424 1.04667 66.4358 1.14C66.5291 1.23333 66.5758 1.35333 66.5758 1.5V14.5C66.5758 14.6467 66.5291 14.7667 66.4358 14.86C66.3424 14.9533 66.2224 15 66.0758 15H64.0358C63.9024 15 63.7891 14.9533 63.6958 14.86C63.6024 14.7667 63.5558 14.6467 63.5558 14.5V6.42L61.0158 11.18C60.9491 11.3 60.8624 11.4067 60.7558 11.5C60.6491 11.5933 60.5091 11.64 60.3358 11.64H59.3958C59.2224 11.64 59.0824 11.5933 58.9758 11.5C58.8691 11.4067 58.7824 11.3 58.7158 11.18L56.1758 6.42V14.5C56.1758 14.6467 56.1291 14.7667 56.0358 14.86C55.9424 14.9533 55.8291 15 55.6958 15H53.6558ZM75.1025 15.2C73.8892 15.2 72.8425 15 71.9625 14.6C71.0825 14.2 70.3958 13.6 69.9025 12.8C69.4092 11.9867 69.1425 10.9667 69.1025 9.74C69.0892 9.16667 69.0825 8.6 69.0825 8.04C69.0825 7.46667 69.0892 6.88667 69.1025 6.3C69.1425 5.1 69.4092 4.09333 69.9025 3.28C70.4092 2.45333 71.1025 1.83333 71.9825 1.42C72.8758 1.00667 73.9158 0.799999 75.1025 0.799999C76.2758 0.799999 77.3025 1.00667 78.1825 1.42C79.0758 1.83333 79.7758 2.45333 80.2825 3.28C80.7892 4.09333 81.0558 5.1 81.0825 6.3C81.1092 6.88667 81.1225 7.46667 81.1225 8.04C81.1225 8.6 81.1092 9.16667 81.0825 9.74C81.0425 10.9667 80.7758 11.9867 80.2825 12.8C79.7892 13.6 79.1025 14.2 78.2225 14.6C77.3425 15 76.3025 15.2 75.1025 15.2ZM75.1025 12.62C75.8758 12.62 76.5092 12.3867 77.0025 11.92C77.5092 11.44 77.7758 10.68 77.8025 9.64C77.8292 9.05333 77.8425 8.50667 77.8425 8C77.8425 7.48 77.8292 6.93333 77.8025 6.36C77.7892 5.66667 77.6625 5.1 77.4225 4.66C77.1825 4.22 76.8625 3.9 76.4625 3.7C76.0758 3.48667 75.6225 3.38 75.1025 3.38C74.5825 3.38 74.1225 3.48667 73.7225 3.7C73.3225 3.9 73.0025 4.22 72.7625 4.66C72.5358 5.1 72.4092 5.66667 72.3825 6.36C72.3692 6.93333 72.3625 7.48 72.3625 8C72.3625 8.50667 72.3692 9.05333 72.3825 9.64C72.4225 10.68 72.6892 11.44 73.1825 11.92C73.6758 12.3867 74.3158 12.62 75.1025 12.62ZM84.105 15C83.9583 15 83.8383 14.9533 83.745 14.86C83.6517 14.7667 83.605 14.6467 83.605 14.5V1.5C83.605 1.35333 83.6517 1.23333 83.745 1.14C83.8383 1.04667 83.9583 0.999999 84.105 0.999999H85.925C86.125 0.999999 86.2717 1.04667 86.365 1.14C86.4583 1.23333 86.5183 1.30667 86.545 1.36L91.885 9.7V1.5C91.885 1.35333 91.9317 1.23333 92.025 1.14C92.1183 1.04667 92.2317 0.999999 92.365 0.999999H94.405C94.5517 0.999999 94.6717 1.04667 94.765 1.14C94.8583 1.23333 94.905 1.35333 94.905 1.5V14.5C94.905 14.6333 94.8583 14.7533 94.765 14.86C94.6717 14.9533 94.5517 15 94.405 15H92.565C92.365 15 92.2183 14.9533 92.125 14.86C92.045 14.7533 91.985 14.68 91.945 14.64L86.625 6.56V14.5C86.625 14.6467 86.5783 14.7667 86.485 14.86C86.3917 14.9533 86.2717 15 86.125 15H84.105Z" fill="white"/>
</svg>
