<svg width="28" height="29" viewBox="0 0 28 29" fill="none" xmlns="http://www.w3.org/2000/svg">
<path d="M12.7311 9.4397L12.7311 12.9575L12.7427 12.9583L12.7427 15.4105L12.7147 15.4214L12.7427 19.0043C12.7429 20.1851 13.1137 21.3394 13.8082 22.3212C14.5027 23.303 15.4898 24.0681 16.6447 24.5199C17.7995 24.9718 19.0702 25.0899 20.2961 24.8595C21.5221 24.6291 22.6481 24.0605 23.532 23.2255C24.4158 22.3905 25.0178 21.3267 25.2617 20.1685C25.5056 19.0104 25.3805 17.8099 24.9022 16.7189C24.4239 15.6279 23.614 14.6954 22.5748 14.0392C21.5355 13.3831 20.3137 13.0328 19.0638 13.0326L17.7874 13.0326L17.7883 15.4214L19.0629 15.4214C19.8129 15.4213 20.5462 15.6314 21.1699 16.025C21.7936 16.4186 22.2797 16.9781 22.5668 17.6327C22.8539 18.2874 22.929 19.0077 22.7827 19.7027C22.6364 20.3977 22.2752 21.0361 21.7449 21.5372C21.2145 22.0382 20.5388 22.3794 19.8031 22.5176C19.0674 22.6559 18.3049 22.5849 17.612 22.3136C16.919 22.0424 16.3268 21.5832 15.9101 20.9939C15.4935 20.4047 15.2712 19.712 15.2713 19.0034L15.2713 15.5042L15.2597 9.44054C15.2599 8.25955 14.8893 7.10502 14.1949 6.12298C13.5005 5.14095 12.5134 4.37551 11.3585 3.92348C10.2036 3.47145 8.93276 3.35313 7.70667 3.58349C6.48058 3.81385 5.35433 4.38253 4.47038 5.21762C3.58642 6.05272 2.98446 7.1167 2.74062 8.27501C2.49678 9.43332 2.62202 10.6339 3.10051 11.725C3.57899 12.8161 4.38921 13.7486 5.42871 14.4046C6.46822 15.0606 7.6903 15.4107 8.9404 15.4105L10.215 15.4105L10.215 13.0225L8.93951 13.0217C8.18945 13.0218 7.4562 12.8117 6.8325 12.4181C6.2088 12.0245 5.72266 11.465 5.43557 10.8104C5.14848 10.1557 5.07334 9.43537 5.21964 8.74038C5.36594 8.04539 5.72712 7.407 6.25749 6.90595C6.78787 6.40489 7.46361 6.06368 8.19927 5.92547C8.93493 5.78725 9.69744 5.85824 10.3904 6.12946C11.0833 6.40068 11.6756 6.85994 12.0922 7.44916C12.5089 8.03839 12.7312 8.7311 12.7311 9.4397Z" fill="#80C51B"/>
<path d="M8.93821 15.4224L12.7131 15.4224L15.2691 15.4114L19.0625 15.4114C20.3124 15.4112 21.5342 15.061 22.5735 14.4048C23.6127 13.7487 24.4226 12.8161 24.9009 11.7251C25.3792 10.6342 25.5043 9.43369 25.2604 8.27553C25.0165 7.11738 24.4145 6.05355 23.5307 5.21856C22.6468 4.38357 21.5208 3.81492 20.2948 3.58451C19.0689 3.3541 17.7982 3.47227 16.6434 3.92409C15.4885 4.37591 14.5014 5.14109 13.8069 6.12286C13.1124 7.10464 12.7416 8.25893 12.7414 9.43978L12.7414 13.0336L15.27 13.0336L15.27 9.44063C15.2699 8.73203 15.4922 8.03932 15.9088 7.4501C16.3255 6.86087 16.9177 6.40161 17.6107 6.13039C18.3036 5.85918 19.0661 5.78818 19.8018 5.9264C20.5375 6.06461 21.2132 6.40582 21.7436 6.90688C22.274 7.40793 22.6351 8.04632 22.7814 8.74131C22.9277 9.4363 22.8526 10.1567 22.5655 10.8113C22.2784 11.4659 21.7923 12.0254 21.1686 12.4191C20.5449 12.8127 19.8116 13.0227 19.0616 13.0226L15.3576 13.0226L15.3567 13.0336L8.9391 13.0336C7.689 13.0334 6.46692 13.3834 5.42742 14.0395C4.38791 14.6955 3.57769 15.628 3.09921 16.719C2.62073 17.8101 2.49548 19.0107 2.73932 20.169C2.98316 21.3273 3.58512 22.3913 4.46908 23.2264C5.35303 24.0615 6.47928 24.6302 7.70537 24.8605C8.93146 25.0909 10.2023 24.9726 11.3572 24.5206C12.5121 24.0685 13.4992 23.3031 14.1936 22.3211C14.888 21.339 15.2586 20.1845 15.2584 19.0035L15.2691 15.4114L12.7131 15.4224L12.7298 19.0043C12.7299 19.7129 12.5076 20.4057 12.0909 20.9949C11.6743 21.5841 11.082 22.0434 10.3891 22.3146C9.69615 22.5858 8.93363 22.6568 8.19797 22.5186C7.46232 22.3804 6.78657 22.0391 6.2562 21.5381C5.72582 21.037 5.36464 20.3986 5.21834 19.7037C5.07204 19.0087 5.14718 18.2883 5.43427 17.6337C5.72136 16.979 6.2075 16.4195 6.8312 16.0259C7.4549 15.6323 8.18815 15.4223 8.93821 15.4224Z" fill="#AFEE3C"/>
</svg>
